<svg xmlns="http://www.w3.org/2000/svg" width="2667" height="2667"><path d="M1287 5.594c-98.409 4.399-179.498 15.644-269 37.304-58.989 14.275-127.522 36.53-184.631 59.956-63.228 25.935-134.797 62.175-191.026 96.727C410.298 342.172 227.15 552.451 118.522 801c-96.857 221.617-130.909 468.821-97.938 711 14.955 109.85 44.078 218.607 86.033 321.287 26.287 64.333 63.727 137.571 100.817 197.213 33.958 54.604 75.781 111.978 115.534 158.494 80.553 94.255 169.331 173.842 269.079 241.221 53.599 36.206 96.097 60.887 155.453 90.282 75.762 37.519 140.559 62.622 222 86.006 166.527 47.816 340.935 62.145 516.5 42.434 130.562-14.658 261.001-49.722 380.738-102.351 116.559-51.231 225.069-118.868 323.262-201.496 51.233-43.112 113.229-105.085 158.255-158.196 90.196-106.392 166.786-233.887 218.601-363.894 48.661-122.093 78.879-250.626 89.574-381 3.472-42.338 4.006-56.899 4.031-110 .03-61.99-1.686-95.726-7.502-147.5-24.268-216.024-97.489-415.348-218.389-594.5-76.167-112.866-164.469-208.651-272.07-295.125-95.541-76.782-203.432-140.658-319-188.861-133.232-55.57-276.518-88.881-424-98.571-22.221-1.459-112.9-2.725-132.5-1.849m17 443.51c-31.64 2.06-75.53 9.461-106.5 17.957-82.292 22.577-162.052 65.211-226.901 121.285-35.343 30.559-75.404 75.572-85.577 96.154-5.013 10.141-6.989 18.612-7.007 30.04-.035 21.3 8.503 37.2 27.985 52.118 17.389 13.314 27.757 17.29 45.185 17.325 26.041.052 48.183-12.024 69.531-37.923 52.736-63.978 121.454-111.419 199.784-137.924 25.039-8.472 59.851-15.544 89.5-18.18 17.135-1.524 53.882-1.527 69.5-.005 48.678 4.742 87.191 15.74 128 36.553 52.965 27.012 93.663 62.841 126.809 111.636 38.021 55.971 58.875 117.215 64.759 190.184 1.488 18.453.637 68.433-1.442 84.676-6.106 47.696-17.837 85.674-38.433 124.417-16.729 31.471-34.632 55.178-63.131 83.602-61.102 60.942-136.36 98.441-228.562 113.888-13.999 2.345-35.217 4.672-55 6.031-20.512 1.409-31.133 5.077-43.627 15.067-14.096 11.27-23.488 26.936-26.839 44.767-.626 3.333-1.009 63.276-1.041 163-.055 171.687-.347 162.257 5.409 174.728 7.57 16.398 25.334 30.665 44.298 35.576 9.172 2.376 27.551 2.844 36.741.936 25.933-5.383 46.47-25.052 53.785-51.512l2.212-8 .327-125.592.328-125.592 11.203-1.213c17.719-1.919 44.121-6.643 62.167-11.124 76.466-18.985 144.828-54.325 210.537-108.837 15.366-12.747 52.16-49.608 65.024-65.142 58.524-70.67 96.618-151.56 110.907-235.5 11.311-66.45 7.656-151.024-9.573-221.5-18.34-75.019-51.8-141.493-101.425-201.5-12.891-15.588-47.676-49.68-63.953-62.679-38.456-30.712-80.698-55.015-127.48-73.344-49.088-19.233-100.259-30.422-157.5-34.44-16.656-1.169-61.598-1.131-80 .067m-4 1543.463c-1.375.232-5.65.93-9.5 1.551-16.33 2.636-30.479 9.917-41.194 21.196-10.596 11.156-16.078 21.949-20.444 40.254-1.935 8.113-2.172 12.545-2.586 48.317-.597 51.631.841 63.946 9.646 82.615 9.773 20.719 25.365 33.336 49.078 39.714 7.889 2.122 10.442 2.283 35.5 2.244 26.604-.042 27.132-.084 35.963-2.808 14.127-4.358 21.846-8.91 31.675-18.678 7.509-7.464 9.296-9.95 13.672-19.029 6.49-13.461 8.973-23.779 10.335-42.943 1.415-19.895.431-73.327-1.555-84.5-6.274-35.29-25.382-57.408-56.59-65.501-7.204-1.868-11.779-2.254-30-2.529-11.825-.178-22.625-.134-24 .097" fill="undefined" fill-rule="evenodd"/></svg>