<svg xmlns="http://www.w3.org/2000/svg" width="1280" height="1280"><path d="M617.5 56.597c-65.607 3.337-123.373 15.049-183 37.102C321.268 135.577 221.698 214.83 153.326 317.5 102.688 393.541 71.829 478.112 60.098 573c-13.362 108.074 6.686 224.483 55.885 324.5 21.436 43.577 45.323 80.215 77.586 119 13.521 16.255 51.849 54.725 68.431 68.686 38.161 32.128 76.364 57.12 120.5 78.831 100.017 49.199 216.426 69.247 324.5 55.885 84.469-10.443 160.532-35.949 229.65-77.009 134.132-79.682 230.098-207.346 268.28-356.893 8.672-33.969 14.005-65.472 17.181-101.5 1.584-17.973 1.573-70.875-.018-89-2.941-33.506-8.013-64.385-15.684-95.5-29.822-120.953-96.898-228.227-192.909-308.515-91.357-76.396-206.779-123.351-328-133.432-13.101-1.09-56.805-2.025-68-1.456M599 615.577c-38.225 97.105-69.652 176.982-69.838 177.504-.211.59 10.557.849 28.368.684l28.708-.265 20.597-53.25L627.432 687h124.362l6.957 17.75c3.827 9.763 13.211 33.83 20.853 53.483l13.896 35.733 45.948-.233 45.948-.233 20.552-53.243 20.552-53.243 62.341.243 62.342.243 20.732 53 20.732 53 29.158.265 29.157.265-.872-2.265c-2.743-7.128-133.358-340.43-135.604-346.034l-2.714-6.769-22.11.269-22.111.269L904.357 600c-34.756 88.275-63.567 161.058-64.025 161.739-.525.782-22.259-53.546-58.809-147-31.887-81.531-60.409-154.426-63.382-161.989L712.737 439l-22.119.011-22.118.011L599 615.577M118.043 441.25c.024.688 21.084 80.225 46.799 176.75l46.756 175.5 25.618.267 25.618.266 1.034-3.266c2.757-8.71 68.761-233.875 71.724-244.682 1.873-6.829 3.548-12.558 3.722-12.732.174-.174 1.906 5.188 3.849 11.915 3.269 11.318 71.61 238.176 73.956 245.499l1.047 3.266 25.588-.266 25.589-.267 46.821-175c25.752-96.25 46.937-175.675 47.079-176.5.223-1.299-3.589-1.535-28.512-1.765l-28.769-.266-.855 2.266c-1.04 2.756-60.439 235.83-62.236 244.206l-1.275 5.94-.839-3.44c-3.684-15.106-12.095-43.362-40.903-137.41-18.199-59.417-33.503-108.819-34.007-109.781-.838-1.599-3.185-1.75-27.2-1.75h-26.282l-1.635 5.25c-6.516 20.922-63.691 216.41-66.903 228.75-2.219 8.525-4.163 15.638-4.32 15.806-.157.168-1.498-5.007-2.979-11.5-2.251-9.867-58.514-231.197-60.134-236.556-.488-1.614-2.775-1.75-29.461-1.75-22.503 0-28.923.278-28.89 1.25m569.547 87.433c-1.575 4.85-11.128 30.591-21.227 57.203-10.1 26.612-18.363 48.549-18.363 48.75 0 .2 19.173.364 42.607.364 40.176 0 42.567-.1 41.912-1.75-1.475-3.71-41.305-110.821-41.674-112.067-.214-.724-1.679 2.651-3.255 7.5m299.079.074c-2.092 6.457-33.568 90.394-39.186 104.493-.657 1.65 1.733 1.75 41.91 1.75 23.434 0 42.607-.22 42.607-.488 0-.269-8.716-23.782-19.369-52.25-10.653-28.469-20.139-54.124-21.08-57.012-.942-2.888-1.788-5.247-1.881-5.243-.094.004-1.444 3.942-3.001 8.75" fill="undefined" fill-rule="evenodd"/></svg>